<?xml version="1.0" standalone="no"?>
<!DOCTYPE svg PUBLIC "-//W3C//DTD SVG 20010904//EN"
 "http://www.w3.org/TR/2001/REC-SVG-20010904/DTD/svg10.dtd">
<svg version="1.0" xmlns="http://www.w3.org/2000/svg"
 width="48.000000pt" height="48.000000pt" viewBox="0 0 48.000000 48.000000"
 preserveAspectRatio="xMidYMid meet">

<g transform="translate(0.000000,48.000000) scale(0.100000,-0.100000)"
fill="#000000" stroke="none">
<path d="M129 350 c-63 -64 -74 -97 -44 -136 8 -10 15 -31 15 -45 0 -42 30
-71 86 -81 111 -21 108 -21 134 5 92 90 107 126 77 172 -7 11 -14 31 -15 43
-2 37 -28 70 -62 77 -17 4 -34 4 -37 1 -3 -3 -15 1 -27 9 -38 27 -64 18 -127
-45z m109 31 c10 -6 4 -14 -22 -29 -34 -20 -36 -25 -36 -71 0 -41 -3 -49 -15
-45 -11 5 -15 21 -15 59 0 46 4 57 26 74 29 23 42 25 62 12z m99 -26 c20 -14
38 -55 25 -55 -4 0 -21 9 -38 19 -31 19 -32 19 -70 -5 -46 -27 -54 -29 -54
-10 0 16 76 66 100 66 9 0 25 -7 37 -15z m-207 -83 c0 -34 4 -41 40 -61 41
-23 52 -41 24 -41 -38 0 -104 53 -104 82 0 24 18 58 30 58 6 0 10 -17 10 -38z
m215 10 c48 -33 58 -77 25 -107 -20 -18 -20 -18 -20 26 0 42 -2 46 -45 69 -29
16 -40 27 -32 32 19 12 29 9 72 -20z m-81 -8 c21 -8 20 -54 -1 -69 -24 -18
-63 1 -63 30 0 36 27 53 64 39z m66 -95 c0 -48 -4 -60 -22 -73 -24 -17 -64
-21 -72 -8 -3 4 11 16 30 27 32 17 34 21 34 71 0 43 3 52 15 48 11 -5 15 -22
15 -65z m-50 -6 c0 -20 -68 -63 -97 -63 -28 0 -63 29 -63 51 0 20 0 20 35 -1
l35 -21 42 25 c51 31 48 30 48 9z"/>
</g>
</svg>
